#!OML:ASF E:\motion texture\Top Level 1\Subject 1\Session 1\male.ASF
:FULLY-SPECIFIED
:DEGREES
187
root 22.3718 16.9295 5.54933 37.9101 -67.3189 -27.3083
lowerback 7.85854 -1.60639 2.68528
upperback 1.54289 -1.97873 -1.23542
thorax -2.94136 -1.02224 -2.58199
lowerneck -5.6996 -10.4231 -17.4997
upperneck -4.03449 -13.0532 16.8286
head 2.06664 -6.34638 7.27392
rclavicle 1.51076e-014 1.11319e-014
rhumerus 30.8867 19.0532 -65.3605
rradius 76.2152
rwrist 31.8868
rhand -34.2568 -26.4337
rfingers 7.12502
rthumb -7.42746 -56.2833
lclavicle 1.51076e-014 1.11319e-014
lhumerus 38.3026 -28.6287 82.5712
lradius 58.6493
lwrist 1.76582
lhand -14.4235 31.7495
lfingers 7.12502
lthumb 11.7207 61.4016
rfemur -11.7477 -2.51913 26.0932
rtibia 35.3543
rfoot -20.3254 -27.7632
rtoes -12.8958
lfemur -48.1271 5.77573 -1.63146
ltibia 37.6781
lfoot -6.80711 2.16527
ltoes -18.9032
188
root 22.1999 16.9157 5.60127 38.0554 -67.0817 -27.3986
lowerback 7.93018 -1.53966 2.50811
upperback 1.57139 -1.90654 -1.30903
thorax -2.94382 -0.985176 -2.56496
lowerneck -5.62154 -10.43 -17.629
upperneck -4.06121 -13.0713 17.0358
head 2.07587 -6.35743 7.36128
rclavicle -1.03368e-014 2.06736e-014
rhumerus 32.079 18.4839 -65.1328
rradius 76.4613
rwrist 32.5443
rhand -34.7926 -26.8035
rfingers 7.12502
rthumb -7.94464 -56.6342
lclavicle -1.03368e-014 2.06736e-014
lhumerus 39.5277 -28.7349 82.611
lradius 58.6046
lwrist 2.11018
lhand -14.6156 32.0461
lfingers 7.12502
lthumb 11.5355 61.7086
rfemur -11.1595 -2.46946 26.3497
rtibia 35.3174
rfoot -20.2391 -28.1066
rtoes -13.0835
lfemur -48.4474 5.77192 -1.2546
ltibia 36.2828
lfoot -6.3547 2.34496
ltoes -18.5885
189
root 22.0266 16.9002 5.6557 38.2212 -66.8618 -27.5219
lowerback 8.00314 -1.46842 2.32823
upperback 1.60075 -1.82881 -1.37956
thorax -2.94582 -0.945377 -2.54386
lowerneck -5.55455 -10.433 -17.7551
upperneck -4.07216 -13.0838 17.2347
head 2.08973 -6.36529 7.44538
rclavicle -1.03368e-014 6.36111e-014
rhumerus 33.2313 17.9438 -64.9457
rradius 76.6217
rwrist 33.1855
rhand -35.2993 -27.1677
rfingers 7.12502
rthumb -8.43361 -56.9793
lclavicle -1.03368e-014 6.36111e-014
lhumerus 40.6886 -28.8057 82.7022
lradius 58.5148
lwrist 2.45873
lhand -14.8136 32.3386
lfingers 7.12502
lthumb 11.3445 62.0118
rfemur -10.5945 -2.42792 26.6
rtibia 35.3433
rfoot -20.1176 -28.4269
rtoes -13.2608
lfemur -48.7368 5.76872 -0.874228
ltibia 34.9983
lfoot -5.89596 2.51543
ltoes -18.2825
190
root 21.8519 16.8831 5.71252 38.4074 -66.6599 -27.6781
lowerback 8.07693 -1.39359 2.14833
upperback 1.63205 -1.74665 -1.44841
thorax -2.94624 -0.9034 -2.52156
lowerneck -5.50184 -10.4321 -17.8796
upperneck -4.0664 -13.0903 17.4276
head 2.10917 -6.36947 7.52706
rclavicle -8.74653e-015 -4.77083e-015
rhumerus 34.346 17.4429 -64.7989
rradius 76.6942
rwrist 33.8047
rhand -35.7703 -27.5329
rfingers 7.12502
rthumb -8.88812 -57.3257
lclavicle -8.74653e-015 -4.77083e-015
lhumerus 41.7813 -28.8387 82.8444
lradius 58.3815
lwrist 2.81591
lhand -14.9923 32.6277
lfingers 7.12502
lthumb 11.1721 62.3103
rfemur -10.0583 -2.39722 26.8431
rtibia 35.4392
rfoot -19.9598 -28.7193
rtoes -13.4312
lfemur -48.9987 5.76826 -0.492545
ltibia 33.8373
lfoot -5.43748 2.67271
ltoes -17.9776
191
root 21.6762 16.8644 5.77167 38.6078 -66.4772 -27.8611
lowerback 8.15424 -1.31588 1.96825
upperback 1.66574 -1.66101 -1.51647
thorax -2.94618 -0.859748 -2.49876
lowerneck -5.47058 -10.4284 -18.0025
upperneck -4.04071 -13.0913 17.6133
head 2.13624 -6.3699 7.60547
rclavicle 1.27222e-014 -5.24792e-014
rhumerus 35.4257 16.9907 -64.6875
rradius 76.6763
rwrist 34.397
rhand -36.2035 -27.8952
rfingers 7.12502
rthumb -9.30616 -57.6698
lclavicle 1.27222e-014 -5.24792e-014
lhumerus 42.8025 -28.8342 83.035
lradius 58.2086
lwrist 3.18901
lhand -15.1669 32.9133
lfingers 7.12502
lthumb 11.0038 62.6049
rfemur -9.55417 -2.38002 27.0748
rtibia 35.6094
rfoot -19.7693 -28.9737
rtoes -13.5614
lfemur -49.2369 5.76995 -0.114496
ltibia 32.8101
lfoot -4.98726 2.81391
ltoes -17.6714
192
root 21.4996 16.8442 5.83301 38.8197 -66.3147 -28.0684
lowerback 8.23512 -1.23413 1.78707
upperback 1.7021 -1.57047 -1.5844
thorax -2.94531 -0.813712 -2.4758
lowerneck -5.45868 -10.4229 -18.1215
upperneck -3.99633 -13.0884 17.7903
head 2.17021 -6.36751 7.67971
rclavicle -2.62396e-014 4.6118e-014
rhumerus 36.466 16.5908 -64.6119
rradius 76.5668
rwrist 34.9605
rhand -36.5835 -28.2305
rfingers 7.12502
rthumb -9.67283 -57.9884
lclavicle -2.62396e-014 4.6118e-014
lhumerus 43.7471 -28.7985 83.2687
lradius 57.9964
lwrist 3.58159
lhand -15.3505 33.2265
lfingers 7.12502
lthumb 10.8267 62.9275
rfemur -9.08508 -2.37642 27.2933
rtibia 35.8576
rfoot -19.5462 -29.1902
rtoes -13.6601
lfemur -49.4547 5.77709 0.255387
ltibia 31.9249
lfoot -4.54775 2.93488
ltoes -17.3834
193
root 21.3223 16.8226 5.89637 39.0397 -66.172 -28.2962
lowerback 8.32024 -1.1488 1.60422
upperback 1.74153 -1.47574 -1.65227
thorax -2.94369 -0.765657 -2.45237
lowerneck -5.46584 -10.4152 -18.2392
upperneck -3.93488 -13.0812 17.9622
head 2.21094 -6.36195 7.75148
rclavicle 2.54444e-014 3.02153e-014
rhumerus 37.4665 16.2532 -64.5676
rradius 76.368
rwrist 35.4758
rhand -36.917 -28.5814
rfingers 7.12502
rthumb -9.9946 -58.3241
lclavicle 2.54444e-014 3.02153e-014
lhumerus 44.6114 -28.7253 83.561
lradius 57.7451
lwrist 3.98702
lhand -15.5373 33.5432
lfingers 7.12502
lthumb 10.6465 63.2535
rfemur -8.65332 -2.38734 27.497
rtibia 36.1836
rfoot -19.2901 -29.3641
rtoes -13.7283
lfemur -49.6556 5.79148 0.613179
ltibia 31.1884
lfoot -4.1207 3.03104
ltoes -17.1129
194
root 21.1445 16.7997 5.96152 39.2579 -66.0491 -28.5342
lowerback 8.40883 -1.05917 1.41481
upperback 1.78532 -1.37632 -1.7201
thorax -2.9394 -0.715283 -2.42581
lowerneck -5.49217 -10.4069 -18.353
upperneck -3.85726 -13.0716 18.126
head 2.2581 -6.3543 7.81922
rclavicle 6.36111e-014 2.22639e-014
rhumerus 38.4287 15.9824 -64.5458
rradius 76.0841
rwrist 35.9331
rhand -37.2166 -28.9428
rfingers 7.12502
rthumb -10.2836 -58.6714
lclavicle 6.36111e-014 2.22639e-014
lhumerus 45.3886 -28.6147 83.9183
lradius 57.4599
lwrist 4.4109
lhand -15.7395 33.8522
lfingers 7.12502
lthumb 10.4514 63.5724
rfemur -8.25961 -2.41432 27.6817
rtibia 36.5862
rfoot -18.9982 -29.497
rtoes -13.7824
lfemur -49.8433 5.81524 0.950068
ltibia 30.6043
lfoot -3.7076 3.09575
ltoes -16.8571
195
root 20.9663 16.7758 6.0283 39.4663 -65.9435 -28.7751
lowerback 8.50392 -0.965169 1.21828
upperback 1.83291 -1.27221 -1.78802
thorax -2.93479 -0.662636 -2.39594
lowerneck -5.5301 -10.3981 -18.4623
upperneck -3.76837 -13.0608 18.2834
head 2.30932 -6.34541 7.88373
rclavicle -1.74931e-014 -2.06736e-014
rhumerus 39.3446 15.7783 -64.5497
rradius 75.7172
rwrist 36.3367
rhand -37.4672 -29.3041
rfingers 7.12502
rthumb -10.5253 -59.0205
lclavicle -1.74931e-014 -2.06736e-014
lhumerus 46.0714 -28.4669 84.3483
lradius 57.1411
lwrist 4.84426
lhand -15.935 34.1469
lfingers 7.12502
lthumb 10.2628 63.8765
rfemur -7.9045 -2.45922 27.8467
rtibia 37.0642
rfoot -18.6723 -29.5853
rtoes -13.8175
lfemur -50.0205 5.84908 1.25986
ltibia 30.1754
lfoot -3.30998 3.12235
ltoes -16.6065
196
root 20.7879 16.7509 6.0964 39.6623 -65.8531 -29.016
lowerback 8.60545 -0.86656 1.01537
upperback 1.88531 -1.16313 -1.8564
thorax -2.92881 -0.607588 -2.3636
lowerneck -5.57858 -10.3899 -18.565
upperneck -3.67167 -13.0502 18.4347
head 2.36361 -6.33614 7.94481
rclavicle -1.82882e-014 -7.95139e-015
rhumerus 40.2116 15.6385 -64.5821
rradius 75.2693
rwrist 36.6829
rhand -37.6681 -29.6557
rfingers 7.12502
rthumb -10.7191 -59.3622
lclavicle -1.82882e-014 -7.95139e-015
lhumerus 46.6601 -28.2844 84.8477
lradius 56.7898
lwrist 5.28619
lhand -16.1199 34.4318
lfingers 7.12502
lthumb 10.0845 64.1701
rfemur -7.58963 -2.5228 27.993
rtibia 37.6147
rfoot -18.3126 -29.6289
rtoes -13.828
lfemur -50.1916 5.89637 1.53788
ltibia 29.9038
lfoot -2.92923 3.10812
ltoes -16.3628
197
root 20.6097 16.7253 6.16567 39.8435 -65.7745 -29.2523
lowerback 8.714 -0.765161 0.809089
upperback 1.94299 -1.05129 -1.92574
thorax -2.92154 -0.551288 -2.33082
lowerneck -5.64382 -10.3836 -18.6651
upperneck -3.56364 -13.0409 18.5846
head 2.42384 -6.3266 8.00402
rclavicle 3.02153e-014 -3.02153e-014
rhumerus 41.03 15.5672 -64.6408
rradius 74.7452
rwrist 36.9573
rhand -37.8501 -29.9634
rfingers 7.12502
rthumb -10.8947 -59.6608
lclavicle 3.02153e-014 -3.02153e-014
lhumerus 47.1564 -28.0672 85.4094
lradius 56.4096
lwrist 5.74192
lhand -16.3011 34.7237
lfingers 7.12502
lthumb 9.9097 64.4704
rfemur -7.31933 -2.60666 28.1221
rtibia 38.2378
rfoot -17.9223 -29.629
rtoes -13.8075
lfemur -50.3618 5.9581 1.78009
ltibia 29.7899
lfoot -2.56817 3.05085
ltoes -16.1207
198
root 20.4316 16.6993 6.23579 40.0092 -65.7042 -29.4819
lowerback 8.82865 -0.660122 0.599407
upperback 2.00516 -0.935583 -1.99503
thorax -2.91324 -0.493194 -2.29667
lowerneck -5.71828 -10.3792 -18.7631
upperneck -3.45 -13.0335 18.735
head 2.4875 -6.31751 8.06252
rclavicle 3.18055e-014 -2.70347e-014
rhumerus 41.7946 15.5636 -64.7251
rradius 74.1478
rwrist 37.173
rhand -38.0172 -30.2259
rfingers 7.12502
rthumb -11.0559 -59.9148
lclavicle 3.18055e-014 -2.70347e-014
lhumerus 47.5594 -27.8201 86.0308
lradius 56.0019
lwrist 6.21644
lhand -16.4816 35.0258
lfingers 7.12502
lthumb 9.7355 64.7808
rfemur -7.09666 -2.71159 28.2372
rtibia 38.9306
rfoot -17.5043 -29.588
rtoes -13.7486
lfemur -50.5352 6.03797 1.98411
ltibia 29.8319
lfoot -2.23003 2.94609
ltoes -15.875
199
root 20.254 16.6732 6.30663 40.1576 -65.6409 -29.7012
lowerback 8.94901 -0.551097 0.389037
upperback 2.07309 -0.815382 -2.06514
thorax -2.90244 -0.433035 -2.26371
lowerneck -5.80375 -10.3793 -18.8531
upperneck -3.33185 -13.0316 18.8814
head 2.55443 -6.31065 8.11742
rclavicle -4.77083e-014 1.90833e-014
rhumerus 42.5058 15.627 -64.831
rradius 73.4813
rwrist 37.3452
rhand -38.1576 -30.4639
rfingers 7.12502
rthumb -11.1913 -60.1455
lclavicle -4.77083e-014 1.90833e-014
lhumerus 47.8747 -27.5444 86.7062
lradius 55.5662
lwrist 6.71195
lhand -16.6583 35.3368
lfingers 7.12502
lthumb 9.56508 65.0997
rfemur -6.92451 -2.83887 28.3388
rtibia 39.6908
rfoot -17.0633 -29.507
rtoes -13.6433
lfemur -50.7134 6.1351 2.14759
ltibia 30.025
lfoot -1.9189 2.79505
ltoes -15.6249
200
root 20.077 16.6471 6.37797 40.2884 -65.581 -29.9081
lowerback 9.07312 -0.437463 0.175699
upperback 2.14586 -0.689931 -2.13245
thorax -2.88891 -0.370417 -2.22702
lowerneck -5.89185 -10.3836 -18.9386
upperneck -3.2141 -13.0352 19.024
head 2.62211 -6.30636 8.16983
rclavicle -3.57812e-014 2.54444e-014
rhumerus 43.163 15.7591 -64.951
rradius 72.7469
rwrist 37.4786
rhand -38.2728 -30.6946
rfingers 7.12502
rthumb -11.3024 -60.37
lclavicle -3.57812e-014 2.54444e-014
lhumerus 48.098 -27.2389 87.4425
lradius 55.1056
lwrist 7.22928
lhand -16.826 35.6547
lfingers 7.12502
lthumb 9.40324 65.425
rfemur -6.8059 -2.98898 28.4304
rtibia 40.5148
rfoot -16.6045 -29.3901
rtoes -13.484
lfemur -50.8988 6.24881 2.2713
ltibia 30.3634
lfoot -1.63818 2.59919
ltoes -15.3633
201
root 19.9007 16.6214 6.44956 40.4022 -65.5228 -30.1017
lowerback 9.20306 -0.32004 -0.0356265
upperback 2.22452 -0.559978 -2.19853
thorax -2.87288 -0.305777 -2.19099
lowerneck -5.99201 -10.3947 -19.0218
upperneck -3.09337 -13.0469 19.1663
head 2.69403 -6.30544 8.22036
rclavicle 1.03368e-014 -9.22361e-014
rhumerus 43.7693 15.9596 -65.0836
rradius 71.9485
rwrist 37.5689
rhand -38.3589 -30.919
rfingers 7.12502
rthumb -11.3854 -60.5899
lclavicle 1.03368e-014 -9.22361e-014
lhumerus 48.2327 -26.9012 88.2338
lradius 54.6232
lwrist 7.77042
lhand -16.9797 35.9786
lfingers 7.12502
lthumb 9.25497 65.7555
rfemur -6.74292 -3.16164 28.5151
rtibia 41.3988
rfoot -16.1323 -29.2409
rtoes -13.2694
lfemur -51.0915 6.37854 2.35653
ltibia 30.8392
lfoot -1.39163 2.36172
ltoes -15.093
